HIERARCHY
ROOT Hips
{
	OFFSET 0.000000 0.000000 0.000000
	CHANNELS 6 Xposition Yposition Zposition Xrotation Yrotation Zrotation
	JOINT LeftUpLeg_virtual
	{
		OFFSET 0.000000 0.000000 0.000000
		CHANNELS 3 Xrotation Yrotation Zrotation
		JOINT LeftUpLeg
		{
			OFFSET 11.394100 -6.187798 -0.413800
			CHANNELS 3 Xrotation Yrotation Zrotation
			JOINT LeftLeg
			{
				OFFSET 0.430247 -32.302673 3.732800
				CHANNELS 3 Xrotation Yrotation Zrotation
				JOINT LeftFoot
				{
					OFFSET -0.430247 -48.264931 -6.423300
					CHANNELS 3 Xrotation Yrotation Zrotation
					JOINT LeftToeBase
					{
						OFFSET 4.230900 -16.068199 23.438400
						CHANNELS 3 Xrotation Yrotation Zrotation
						JOINT LeftToe_End
						{
							OFFSET 4.510700 0.695400 19.974600
							CHANNELS 3 Xrotation Yrotation Zrotation
							End Site
							{
								OFFSET 0 0 0
							}
						}
					}
				}
			}
		}
	}
	JOINT RightUpLeg_virtual
	{
		OFFSET 0.000000 0.000000 0.000000
		CHANNELS 3 Xrotation Yrotation Zrotation
		JOINT RightUpLeg
		{
			OFFSET -11.333700 -6.187798 -0.413800
			CHANNELS 3 Xrotation Yrotation Zrotation
			JOINT RightLeg
			{
				OFFSET -0.430392 -32.302628 3.733000
				CHANNELS 3 Xrotation Yrotation Zrotation
				JOINT RightFoot
				{
					OFFSET 0.430392 -48.264973 -6.423500
					CHANNELS 3 Xrotation Yrotation Zrotation
					JOINT RightToeBase
					{
						OFFSET -4.230900 -16.068199 23.438400
						CHANNELS 3 Xrotation Yrotation Zrotation
						JOINT RightToe_End
						{
							OFFSET -4.510700 0.695400 19.974600
							CHANNELS 3 Xrotation Yrotation Zrotation
							End Site
							{
								OFFSET 0 0 0
							}
						}
					}
				}
			}
		}
	}
	JOINT Spine_virtual
	{
		OFFSET 0.000000 0.000000 0.000000
		CHANNELS 3 Xrotation Yrotation Zrotation
		JOINT Spine
		{
			OFFSET -0.002400 12.777504 0.315300
			CHANNELS 3 Xrotation Yrotation Zrotation
			JOINT Spine1
			{
				OFFSET -0.002067 5.816869 0.032633
				CHANNELS 3 Xrotation Yrotation Zrotation
				JOINT Spine1_split
				{
					OFFSET -0.002067 5.816869 0.032633
					CHANNELS 3 Xrotation Yrotation Zrotation
					JOINT Spine2
					{
						OFFSET -0.002067 5.816869 0.032633
						CHANNELS 3 Xrotation Yrotation Zrotation
						JOINT Neck_virtual
						{
							OFFSET 0.000000 0.000000 0.000000
							CHANNELS 3 Xrotation Yrotation Zrotation
							JOINT Neck
							{
								OFFSET -0.003700 21.199493 -0.826900
								CHANNELS 3 Xrotation Yrotation Zrotation
								JOINT Head
								{
									OFFSET 0.000000 20.442200 4.834800
									CHANNELS 3 Xrotation Yrotation Zrotation
									JOINT HeadTop_End
									{
										OFFSET 0.000000 34.668396 4.968400
										CHANNELS 3 Xrotation Yrotation Zrotation
										End Site
										{
											OFFSET 0 0 0
										}
									}
								}
							}
						}
						JOINT LeftShoulder_virtual
						{
							OFFSET 0.000000 0.000000 0.000000
							CHANNELS 3 Xrotation Yrotation Zrotation
							JOINT LeftShoulder
							{
								OFFSET 3.288150 8.794197 -1.372250
								CHANNELS 3 Xrotation Yrotation Zrotation
								JOINT LeftShoulder_split
								{
									OFFSET 3.288150 8.794197 -1.372250
									CHANNELS 3 Xrotation Yrotation Zrotation
									JOINT LeftArm
									{
										OFFSET 11.953299 -2.279007 -0.146200
										CHANNELS 3 Xrotation Yrotation Zrotation
										JOINT LeftForeArm
										{
											OFFSET 18.448900 0.000000 0.000000
											CHANNELS 3 Xrotation Yrotation Zrotation
											JOINT LeftHand
											{
												OFFSET 29.527798 0.000000 0.000000
												CHANNELS 3 Xrotation Yrotation Zrotation
												End Site
												{
													OFFSET 0 0 0
												}
											}
										}
									}
								}
							}
						}
						JOINT RightShoulder_virtual
						{
							OFFSET 0.000000 0.000000 0.000000
							CHANNELS 3 Xrotation Yrotation Zrotation
							JOINT RightShoulder
							{
								OFFSET -3.249400 8.794197 -1.372250
								CHANNELS 3 Xrotation Yrotation Zrotation
								JOINT RightShoulder_split
								{
									OFFSET -3.249400 8.794197 -1.372250
									CHANNELS 3 Xrotation Yrotation Zrotation
									JOINT RightArm
									{
										OFFSET -11.953299 -2.279007 -0.146200
										CHANNELS 3 Xrotation Yrotation Zrotation
										JOINT RightForeArm
										{
											OFFSET -18.448900 0.000000 0.000000
											CHANNELS 3 Xrotation Yrotation Zrotation
											JOINT RightHand
											{
												OFFSET -29.527802 0.000000 0.000000
												CHANNELS 3 Xrotation Yrotation Zrotation
												End Site
												{
													OFFSET 0 0 0
												}
											}
										}
									}
								}
							}
						}
					}
				}
			}
		}
	}
}
MOTION
Frames: 4
Frame Time: 0.03333333
53.810516 92.919556 29.097691 0.000000 0.000000 0.000000 -17.110894 -58.092221 -16.386539 -20.720431 7.594427 6.821780 43.790979 -8.277172 2.972338 -17.142766 14.354167 4.141120 -4.198819 -0.569535 0.346916 0.000000 0.000000 0.000000 -14.302745 -55.275567 -14.336936 -19.189142 20.231778 -8.993956 51.876041 -8.472919 -10.403741 11.834967 0.481181 24.981296 -34.019379 -2.403110 7.636321 0.000000 0.000000 0.000000 -15.413606 -55.399599 -14.655429 10.791648 7.710107 -0.591421 4.100718 13.787587 -1.454879 1.488471 -3.732816 0.828567 0.000000 0.000000 0.000000 3.165826 13.652630 -1.960089 -4.017734 -2.184698 0.119651 3.253960 -39.830310 4.316582 0.000000 0.000000 0.000000 3.651139 13.234302 -1.947251 -5.290655 -18.749986 -26.219230 -3.027360 3.384716 -8.082936 -22.156963 23.434710 -41.901151 -2.759501 -37.942947 -2.580126 0.000000 0.000000 0.000000 1.059387 13.312288 -1.717869 18.891856 -23.240564 22.587502 0.832792 2.405888 0.479537 18.496878 -20.196683 41.649005 179.722016 68.822659 178.638830 0.000000 0.000000 0.000000 
53.684135 92.736351 31.521307 0.000000 0.000000 0.000000 -17.438484 -56.378219 -16.837629 -18.945835 7.498974 5.635314 43.288994 -8.584387 2.655040 -18.141232 12.716187 5.473168 -4.098141 -0.467679 0.189917 0.000000 0.000000 0.000000 -14.781293 -53.570430 -14.722714 -24.566179 22.519506 -5.075505 58.215799 -6.688271 -10.336970 12.908591 7.537282 24.432548 -39.048813 -2.428553 7.016248 0.000000 0.000000 0.000000 -15.435591 -53.488082 -14.440275 11.054288 5.487517 -0.645993 4.370876 13.550196 -1.465723 1.338916 -3.935508 0.751840 0.000000 0.000000 0.000000 3.331445 13.474462 -1.963155 -3.766660 -2.185705 0.443245 4.071965 -40.534212 4.705495 0.000000 0.000000 0.000000 3.737276 13.093710 -1.978866 -5.718377 -20.245966 -26.489470 -2.687683 3.456836 -8.091107 -22.915029 20.849315 -41.532191 -2.489647 -39.085563 -2.313385 0.000000 0.000000 0.000000 1.287169 13.181570 -1.804590 19.045935 -23.718262 23.159961 0.563867 2.261241 0.551333 19.797232 -22.844789 43.102780 179.906418 68.665674 178.335174 0.000000 0.000000 0.000000 
53.511566 92.667892 33.928772 0.000000 0.000000 0.000000 -16.862754 -54.394226 -16.700578 -16.819600 7.517562 4.819857 41.761105 -9.072504 2.075499 -19.166221 10.447314 6.594747 -4.267284 -0.404477 0.246152 0.000000 0.000000 0.000000 -14.734721 -51.573379 -14.902143 -29.419886 22.680844 -1.031810 61.971071 -5.028717 -9.701030 12.318697 13.517950 24.009017 -41.439707 -1.535399 5.141548 0.000000 0.000000 0.000000 -14.645923 -51.545197 -13.880006 11.325790 3.308871 -0.434291 4.549913 13.247232 -1.445943 1.138713 -4.106139 0.812509 0.000000 0.000000 0.000000 3.397427 13.207769 -1.927524 -3.609664 -2.138888 0.847330 4.869046 -41.143188 5.146521 0.000000 0.000000 0.000000 3.747025 12.862070 -2.012471 -6.154409 -22.010877 -26.562940 -2.407470 3.651346 -8.140431 -23.577786 18.115832 -41.337473 -2.135455 -40.226829 -1.997443 0.000000 0.000000 0.000000 1.443334 12.968391 -1.879279 19.128081 -23.977866 23.757549 0.369157 2.222368 0.599121 20.039280 -24.571563 43.662794 -179.709203 69.418238 177.881308 0.000000 0.000000 0.000000 
53.295185 92.807701 36.369453 0.000000 0.000000 0.000000 -15.398979 -52.081173 -15.893507 -14.464517 7.572832 4.378115 39.631155 -9.786532 1.246593 -19.694712 7.739968 7.330139 -4.936326 -0.391600 0.644768 0.000000 0.000000 0.000000 -14.089871 -49.329586 -14.682974 -33.045084 21.248276 2.101953 62.288006 -4.187399 -8.278837 10.850613 16.936830 23.140971 -40.050290 -0.062579 2.595916 0.000000 0.000000 0.000000 -13.269119 -49.445478 -13.027624 11.611737 1.211622 0.033953 4.629746 12.874980 -1.405847 0.936661 -4.191439 0.937077 0.000000 0.000000 0.000000 3.378980 12.852240 -1.872610 -3.549454 -2.084355 1.313119 5.624013 -41.720588 5.717991 0.000000 0.000000 0.000000 3.692959 12.539280 -2.050385 -6.573459 -23.977150 -26.412867 -2.175212 3.869883 -8.297299 -24.119811 15.321347 -41.321572 -1.831500 -41.891650 -1.734185 0.000000 0.000000 0.000000 1.540937 12.674044 -1.954208 19.157163 -24.102278 24.298688 0.383401 2.301231 0.653741 19.117766 -25.127207 43.243372 -179.194125 70.625003 177.352815 0.000000 0.000000 0.000000 
